<svg height="512" viewBox="0 0 60 60" width="512" xmlns="http://www.w3.org/2000/svg"><g id="Page-1" fill="none" fill-rule="evenodd"><g id="009---Animal-Hospital" fill="rgb(0,0,0)" fill-rule="nonzero" transform="translate(-1)"><path id="Shape" d="m2 26h1v32h-1c-.55228475 0-1 .4477153-1 1s.44771525 1 1 1h58c.5522847 0 1-.4477153 1-1s-.4477153-1-1-1h-1v-32h1c.3126648.0001817.6074185-.1458876.7966465-.3947892.1892281-.2489017.2511477-.5719836.1673535-.8732108l-4.594-16.532c-.3626039-1.29776636-1.5435334-2.19643288-2.891-2.2h-15.707l-6.086-5.728c-.3852236-.36319795-.9867764-.36319795-1.372 0l-6.085 5.728h-15.708c-1.34760884.00379679-2.52870431.90227883-2.892 2.2l-4.593 16.532c-.08379423.3012272-.0218746.6243091.16735346.8732108.18922807.2489016.48398177.3949709.79664654.3947892zm3 0h11v4h-7c-1.1045695 0-2 .8954305-2 2v7c0 1.1045695.8954305 2 2 2h7v2h-7c-1.1045695 0-2 .8954305-2 2v7c0 1.1045695.8954305 2 2 2h7v4h-11zm4 26v-7h2v7zm4-7h3v7h-3zm-4-6v-7h2v7zm4-7h3v7h-3zm17 20h-1c-.5522847 0-1 .4477153-1 1s.4477153 1 1 1h1v4h-7v-13h7zm2 6v-4h1c.5522847 0 1-.4477153 1-1s-.4477153-1-1-1h-1v-7h7v13zm21-26v7h-2v-7zm-4 7h-3v-7h3zm4 6v7h-2v-7zm-4 7h-3v-7h3zm8 6h-11v-4h7c1.1045695 0 2-.8954305 2-2v-7c0-1.1045695-.8954305-2-2-2h-7v-2h7c1.1045695 0 2-.8954305 2-2v-7c0-1.1045695-.8954305-2-2-2h-7v-4h11zm-3.521-50c.4492863-.00026105.8435913.29914903.964.732l4.242 15.268h-12.685v-7.509l1.314 1.237c.4020633.3788673 1.0351327.3600633 1.414-.042s.3600633-1.0351327-.042-1.414l-8.786-8.27200017zm-22.479-5.627 13 12.236v43.391h-3v-13c0-1.1045695-.8954305-2-2-2h-16c-1.1045695 0-2 .8954305-2 2v13h-3v-43.391zm-23.444 6.36c.12191265-.43239675.5157478-.73154821.965-.733h13.579l-8.79 8.272c-.2600893.2450842-.369671.6103073-.2874665.9580934s.3437062.6252981.686.728.7133772.0149908.9734665-.2300934l1.318-1.237v7.509h-12.685z"/><path id="Shape" d="m25 24.333c0 .861.433 3.667 6 3.667s6-2.806 6-3.667c0-1.773-2.853-6.333-6-6.333s-6 4.56-6 6.333zm6-4.333c1.866 0 4 3.466 4 4.333 0 1.028-1.532 1.667-4 1.667s-4-.639-4-1.667c0-.867 2.134-4.333 4-4.333z"/><path id="Shape" d="m27.239 16.952c.2020404.0000583.4033991-.0234336.6-.07 1.7078101-.5579064 2.6492914-2.3855926 2.112-4.1-.1896928-.8448143-.6603322-1.600305-1.335-2.143-.6612096-.5587989-1.5483359-.77072702-2.3907217-.5711264-.8423858.1996007-1.5401016.7870522-1.8802783 1.5831264-.3597904.7875492-.4415864 1.6739069-.232 2.514.2842098 1.5333376 1.5702277 2.6798929 3.126 2.787zm-1.089-4.442c.0971977-.2349842.2928699-.4152953.535-.493.2515196-.0416868.5084688.0317273.7.2.31306.2656299.5293211.6274718.615 1.029.184.777-.109 1.567-.628 1.69s-1.135-.451-1.319-1.229c-.1013669-.3987111-.0672425-.8198128.097-1.197z"/><path id="Shape" d="m23 22c1.6568542 0 3-1.3431458 3-3s-1.3431458-3-3-3-3 1.3431458-3 3 1.3431458 3 3 3zm0-4c.5522847 0 1 .4477153 1 1s-.4477153 1-1 1-1-.4477153-1-1 .4477153-1 1-1z"/><path id="Shape" d="m34.163 16.882c.1966009.0465664.3979596.0700583.6.07 1.5556172-.1059091 2.8423839-1.2511644 3.128-2.784.2095864-.8400931.1277904-1.7264508-.232-2.514-.3401767-.7960742-1.0378925-1.3835257-1.8802783-1.5831264-.8423858-.19960062-1.7295121.0123275-2.3907217.5711264-.6746678.542695-1.1453072 1.2981857-1.335 2.143-.535541 1.7129005.4045311 3.5382443 2.11 4.097zm-.163-3.636c.0874884-.4019649.3059043-.7635293.621-1.028.1555815-.1297987.3487268-.2062156.551-.218.0481832-.0002138.0962099.0054957.143.017.2421301.0777047.4378023.2580158.535.493.1635884.3785268.1963136.8007883.093 1.2-.184.778-.808 1.353-1.319 1.229s-.811-.916-.624-1.693z"/><path id="Shape" d="m36 19c0 1.6568542 1.3431458 3 3 3s3-1.3431458 3-3-1.3431458-3-3-3-3 1.3431458-3 3zm3-1c.5522847 0 1 .4477153 1 1s-.4477153 1-1 1-1-.4477153-1-1 .4477153-1 1-1z"/><path id="Shape" d="m28 30h-5c-1.1045695 0-2 .8954305-2 2v7c0 1.1045695.8954305 2 2 2h5c1.1045695 0 2-.8954305 2-2v-7c0-1.1045695-.8954305-2-2-2zm-5 9v-7h5v7z"/><path id="Shape" d="m32 32v7c0 1.1045695.8954305 2 2 2h5c1.1045695 0 2-.8954305 2-2v-7c0-1.1045695-.8954305-2-2-2h-5c-1.1045695 0-2 .8954305-2 2zm7 7h-5v-7h5z"/><path id="Shape" d="m6.713 21.958c.09307627.0280574.189787.0422102.287.042.44176824.0000307.83121251-.2898167.958-.713l2.786-9.287h2.256c.5522847 0 1-.4477153 1-1s-.4477153-1-1-1h-2.256c-.88485074-.00404391-1.66586271.5772312-1.916 1.426l-2.786 9.287c-.07613558.2540775-.04821167.5279942.07762781.7614817.12583947.2334876.33928455.4074165.59337219.4835183z"/><path id="Shape" d="m51.256 12 2.786 9.287c.1267875.4231833.5162318.7130307.958.713.0971759-.0002977.1938137-.0144398.287-.042.2540876-.0761018.4675327-.2500307.5933722-.4835183.1258395-.2334875.1537634-.5074042.0776278-.7614817l-2.786-9.287c-.2501373-.8487688-1.0311493-1.43004391-1.916-1.426h-2.256c-.5522847 0-1 .4477153-1 1s.4477153 1 1 1z"/></g></g></svg>